<svg height="414pt" viewBox="0 -24 414 414" width="414pt" xmlns="http://www.w3.org/2000/svg" xmlns:xlink="http://www.w3.org/1999/xlink"><linearGradient id="a"><stop offset=".322" stop-color="#a163f5"/><stop offset=".466" stop-color="#b074ee"/><stop offset=".752" stop-color="#d8a1dd"/><stop offset=".898" stop-color="#efbad3"/></linearGradient><linearGradient id="b" gradientUnits="userSpaceOnUse" x1="207" x2="207" xlink:href="#a" y1="432.041" y2="-73.368"/><linearGradient id="c" gradientUnits="userSpaceOnUse" x1="295.821" x2="295.821" xlink:href="#a" y1="432.041" y2="-73.368"/><linearGradient id="d" gradientUnits="userSpaceOnUse" x1="100.913" x2="100.913" xlink:href="#a" y1="432.041" y2="-73.368"/><linearGradient id="e" gradientUnits="userSpaceOnUse" x1="50.478" x2="50.478" xlink:href="#a" y1="432.041" y2="-73.368"/><linearGradient id="f" gradientUnits="userSpaceOnUse" x1="151.348" x2="151.348" xlink:href="#a" y1="432.041" y2="-73.368"/><linearGradient id="g" gradientUnits="userSpaceOnUse" x1="124.5" x2="124.5" xlink:href="#a" y1="432.041" y2="-73.368"/><path d="m367 0h-320c-25.945312.0273438-46.9726562 21.054688-47 47v271.300781c.0273438 25.945313 21.054688 46.96875 47 47h320c25.945312-.03125 46.972656-21.054687 47-47v-271.300781c-.027344-25.945312-21.054688-46.9726562-47-47zm-320 14h320c18.21875.019531 32.980469 14.78125 33 33v32.730469h-386v-32.730469c.019531-18.21875 14.78125-32.980469 33-33zm320 337.300781h-320c-18.21875-.019531-32.980469-14.785156-33-33v-224.570312h386v224.574219c-.019531 18.214843-14.78125 32.980468-33 33zm0 0" fill="url(#b)"/><g fill="url(#c)"><path d="m350.820312 244.433594h-109.996093c-3.867188 0-7 3.136718-7 7 0 3.867187 3.132812 7 7 7h110c3.867187 0 7-3.132813 7-7 0-3.863282-3.132813-7-7-7zm0 0"/><path d="m350.820312 295.042969h-109.996093c-3.867188 0-7 3.136719-7 7 0 3.867187 3.132812 7 7 7h110c3.867187 0 7-3.132813 7-7 0-3.863281-3.132813-7-7-7zm0 0"/><path d="m350.820312 143.214844h-109.996093c-3.867188 0-7 3.136718-7 7 0 3.867187 3.132812 7 7 7h110c3.867187 0 7-3.132813 7-7 0-3.863282-3.132813-7-7-7zm0 0"/><path d="m350.820312 193.824219h-109.996093c-3.867188 0-7 3.136719-7 7 0 3.867187 3.132812 7 7 7h110c3.867187 0 7-3.132813 7-7 0-3.863281-3.132813-7-7-7zm0 0"/></g><path d="m100.914062 68.78125c12.03125 0 21.78125-9.753906 21.78125-21.78125 0-12.03125-9.753906-21.785156-21.78125-21.785156-12.03125 0-21.785156 9.753906-21.785156 21.785156.015625 12.023438 9.757813 21.769531 21.785156 21.78125zm0-29.5625c4.296876 0 7.78125 3.484375 7.78125 7.78125s-3.484374 7.78125-7.78125 7.78125c-4.300781 0-7.785156-3.484375-7.785156-7.78125.007813-4.296875 3.488282-7.777344 7.785156-7.78125zm0 0" fill="url(#d)"/><path d="m50.476562 68.78125c12.03125.003906 21.789063-9.75 21.789063-21.777344.003906-12.03125-9.75-21.789062-21.78125-21.789062s-21.785156 9.753906-21.785156 21.785156c.015625 12.023438 9.757812 21.765625 21.777343 21.78125zm0-29.5625c4.300782-.003906 7.785157 3.480469 7.785157 7.78125 0 4.296875-3.484375 7.78125-7.78125 7.78125-4.300781 0-7.785157-3.484375-7.785157-7.78125.003907-4.296875 3.488282-7.777344 7.78125-7.78125zm0 0" fill="url(#e)"/><path d="m151.347656 68.78125c12.03125 0 21.785156-9.753906 21.785156-21.78125-.003906-12.03125-9.753906-21.785156-21.785156-21.785156s-21.785156 9.753906-21.78125 21.785156c.011719 12.023438 9.757813 21.769531 21.78125 21.78125zm0-29.5625c4.296875 0 7.785156 3.484375 7.785156 7.78125s-3.488281 7.78125-7.785156 7.78125-7.78125-3.484375-7.78125-7.78125c.003906-4.296875 3.484375-7.777344 7.78125-7.78125zm0 0" fill="url(#f)"/><path d="m188 143.214844h-127c-3.867188 0-7 3.136718-7 7v151.828125c0 3.867187 3.132812 7 7 7h127c3.867188 0 7-3.132813 7-7v-151.828125c0-3.863282-3.132812-7-7-7zm-7 151.828125h-113v-137.828125h113zm0 0" fill="url(#g)"/></svg>